<svg width="61" height="61" viewBox="0 0 61 61" fill="none" xmlns="http://www.w3.org/2000/svg">
<mask id="mask0_230_7" style="mask-type:alpha" maskUnits="userSpaceOnUse" x="0" y="0" width="61" height="61">
<rect x="0.611816" y="0.791504" width="60" height="60" fill="#D9D9D9"/>
</mask>
<g mask="url(#mask0_230_7)">
<path d="M5.61182 40.7915V35.7915H10.6118V40.7915H5.61182ZM5.61182 30.7915V25.7915H10.6118V30.7915H5.61182ZM5.61182 20.7915V15.7915H10.6118V20.7915H5.61182ZM15.6118 40.7915V35.7915H25.6118V40.7915H15.6118ZM15.6118 30.7915V25.7915H48.1118V30.7915H15.6118ZM15.6118 20.7915V15.7915H48.1118V20.7915H15.6118ZM40.4868 50.7915L29.8618 40.1665L33.4243 36.604L40.4868 43.6665L54.6118 29.5415L58.1118 33.1665L40.4868 50.7915Z" fill="#00D1FE"/>
</g>
</svg>
