<?xml version="1.0" encoding="UTF-8"?>
<svg id="_레이어_1" data-name="레이어 1" xmlns="http://www.w3.org/2000/svg" viewBox="0 0 390 390">
  <defs>
    <style>
      .cls-1 {
        fill: #f9fdfe;
      }

      .cls-1, .cls-2, .cls-3 {
        stroke-width: 0px;
      }

      .cls-2 {
        fill: #01d1fe;
      }

      .cls-3 {
        fill: #fcfefe;
      }
    </style>
  </defs>
  <path class="cls-2" d="M.06,370.95V19.05C3.92,9.77,10.16,2.99,20.05.06h349.9c10.08,3.24,16.86,9.8,19.99,19.99v350.9c-3.86,9.28-10.11,16.05-19.99,18.99H19.05c-9-3.66-15.45-9.87-18.99-18.99ZM207.3,261.66c12.67,6.65,25.28,13.43,37.02,21.64,2.46,1.72,4.09,1.91,6.6.39,13.41-8.14,24.78-18.45,34.2-31.01,15.44-20.58,21.02-44.22,21.4-69.36.07-4.38,1.56-5.61,5.42-6.26,11.32-1.9,20.12-7.86,25.78-17.84,4.93-8.7,6.65-18.01,3.52-29.23-3.81,8.32-9.18,12.48-17.17,12.56-2.49.02-4.98-.33-7.48-.45-10.21-.49-18.51,4.77-22.56,14.13-.6,1.39-.43,3.36-2.54,4.01-.38-.81-.74-1.55-1.07-2.3-5.19-11.72-13.32-16.6-26.09-15.69-1.99.14-3.98.28-5.97.26-7.6-.07-12.29-4.77-16.54-11.61-1.98,8.79-1.42,16.23,1.7,23.42,5.44,12.54,15.04,20.1,28.4,22.68,7.42,1.43,11.81,5.67,13.47,12.91,3.3,14.42-4.33,33.44-16.74,41.8-12.43,8.37-29.15,7.43-42.63-2.08-12.62-8.9-20.58-21.58-28.52-34.31-8.85-14.2-18.24-28.07-32.66-37.24-30.59-19.44-64.01-21.35-98.05-12.96-17.97,4.43-22.26,16.64-19.18,34.43,5.13-3.26,10.39-5.91,16.51-6.5,21.19-2.04,39.28,5.12,55.11,18.68,13.13,11.25,22.21,25.58,29.79,40.9,9.06,18.3,19.53,35.61,34.09,50.15,22.21,22.16,48.13,33.49,80,27.12,3.01-.6,6.11-1.15,9.33-3.54-10.82-2.06-20.09-6.03-28.78-11.3-14.31-8.68-27.68-18.49-37.47-32.41.36-.33.72-.66,1.09-.99ZM290.04,73.01c-2.27,1.04-3.92,1.5-5.22,2.45-4.8,3.5-7.82,2.14-11.87-2.14-21.49-22.69-47.64-36.88-79.1-39.13-46.94-3.37-84.22,15.16-112.51,52.25-9.36,12.27-15.99,26.07-19.71,41.12-.36,1.46-2.61,4.73,2.19,3.67,11.76-2.6,23.69-3.22,35.71-3.08,7.31.08,10.34-3.15,10.34-10.46,0-1,0-2,0-3q0-10.09-9.23-5.66c-7.05,3.4-14.09,6.84-21.13,10.27,12.27-31.72,34.25-53.49,65.44-65.41,22.88-8.74,46.31-9.34,71.05-1.81-5.03,2.66-8.84,4.67-12.64,6.7-1.32.7-2.94,1.3-2.97,3.05-.1,5.87-.04,11.75-.04,18.3,8.6-4.37,16.3-8.27,23.99-12.18,13.43-6.82,13.32-6.68,25.57,2.38,9.76,7.21,17.81,15.06,14.93,28.74-.09.45.17.97.3,1.68.99-.32,2.05-.41,2.8-.94,4.41-3.16,6.75-1.54,9.01,2.94,4.2,8.34,8.13,16.76,11.02,25.64,2.45,7.52,2.36,7.27,9.55,4.24,3.54-1.49,4.24-3.29,3.19-6.73-2.77-9.1-6.4-17.82-10.67-26.31-1.48-2.94-5.62-6.09-.26-9.4.34-.21.22-1.26.23-1.92.02-4.82,0-9.64,0-15.26ZM131.94,293.18c-.5-.63-.96-1.3-1.5-1.89-22.52-24.63-32.7-53.83-32.49-86.98.02-3.48,2.81-7.52-.26-10.33-2.75-2.52-6.85-3.22-10.53-4.28-12.38-3.57-13.51-2.82-12.21,10.09,3.15,31.19,16.72,57.77,36.89,81.23,5.22,6.07,11.94,10.26,20.1,12.16ZM161.64,300.91c-2.51-2.16-4.27-3.59-5.93-5.12-21.22-19.62-34.26-43.42-34.26-72.69,0-8.31-2.73-13.45-8.42-18.17-.38-.32-.72-.72-1.13-.98-1.52-.94-2.71-3.41-4.45-2.72-2.05.82-1.44,3.5-1.53,5.4-.89,19.59,3.94,37.89,12.64,55.29,6.72,13.44,15.43,25.26,27.83,34.06,4.21,2.98,8.79,5,15.26,4.93ZM95.71,274.88c.82-2.59-.8-3.84-1.76-5.31-4.78-7.41-9.31-14.98-13.1-22.95-8.3-17.43-14.18-35.48-14.13-55.07,0-1.62.05-3.33-2.33-3.7-7.09-1.12-14.03,5.01-13.54,12.02.26,3.67.91,7.25,1.98,10.77,7.76,25.6,22.95,46.23,42.88,64.24ZM129.03,226.09c0,.8-.04,1.61,0,2.41,1.1,19.91,9.53,36.79,21.75,52.02,6.08,7.58,13.27,14.02,21.82,18.75,4.27,2.36,8.81,3.75,13.86,2.77-28.2-18.63-41.18-48.29-57.43-75.95ZM113.22,340.07c.49.1.98.19,1.47.29,0,3.97.06,7.93-.02,11.9-.04,2.23.13,3.76,3.12,3.72,2.73-.04,3.39-1.06,3.33-3.55-.13-5.33.08-10.66-.1-15.98-.06-1.81,1.42-5.01-2.24-4.88-3.09.11-7.12-2.1-8.86,2.95-1.54,4.45-3.56,8.72-5.81,14.14-2.33-5.62-4.22-10.17-6.1-14.73-1.87-4.51-5.75-2.17-8.72-2.35-3.29-.2-2.14,2.74-2.18,4.46-.13,5.49.06,10.99-.09,16.48-.07,2.63.89,3.41,3.46,3.44,2.77.04,3.39-1.15,3.31-3.59-.13-4.19-.04-8.39-.04-12.59,2.8,4.12,4.56,8.35,6.22,12.62.73,1.89,1.17,3.54,3.92,3.6,2.89.06,3.64-1.54,4.45-3.66,1.57-4.11,3.25-8.18,4.89-12.26ZM161.4,87.92q-.03,11.36,8.88,7.03c1.49-.73,2.95-1.53,4.43-2.28q13.72-6.95,13.14-22.29c0-.17-.02-.33,0-.5.23-2.66-.75-3.28-3.15-2.05-4.74,2.41-9.38,5.13-14.34,6.94-7,2.55-11.2,6.33-8.95,13.16ZM148.85,85.51c-8.68,4.24-16.42,8.01-24.14,11.81-1.25.61-2.18,1.54-2.18,3.07,0,5.6,0,11.2,0,17.58,6.97-3.4,12.81-6.59,18.92-9.13,5.51-2.29,8.65-5.36,7.52-11.86-.59-3.38-.1-6.95-.1-11.48ZM251.96,87.64c-4.72,2.22-8.74,4.11-12.75,6.01q-13.77,6.5-12.79,21.79c.02.33.02.67.02,1-.03,2.39,1.13,2.3,2.83,1.46,6.87-3.38,13.75-6.72,20.64-10.05,1.31-.63,2.09-1.44,2.07-3.03-.06-5.44-.02-10.89-.02-17.18ZM235.46,343.85q0,12.05,12.15,12.04c.66,0,1.33,0,1.99,0,8.88-.09,12.73-4.04,12.54-12.86-.18-8.24-4.08-11.51-13.83-11.59q-12.85-.11-12.85,12.42ZM139.95,356.27c.58-.03,1.58-.05,2.57-.13,7.67-.68,11.79-4.79,12.01-11.94.22-7.35-3.43-11.78-10.91-12.99-2.95-.47-5.97-.5-8.92.12-8.43,1.77-12.41,8.72-9.76,16.92,1.68,5.21,6.82,8.03,15.01,8.02ZM196.48,343.7c0,2.99.07,5.99-.02,8.98-.07,2.25.62,3.31,3.11,3.25,5.65-.15,11.31-.11,16.97-.01,1.89.03,2.72-.56,2.71-2.53,0-2.13-1.19-2.37-2.9-2.34-3.49.07-6.99-.02-10.48.02-1.72.02-2.82-.33-2.85-2.44-.03-2.13.71-3.03,2.87-2.97,3.32.08,6.65-.04,9.98.02,1.7.03,2.42-.68,2.43-2.34.02-1.74-.86-2.28-2.49-2.25-3.33.06-6.65-.02-9.98.02-1.76.02-2.83-.44-2.78-2.51.05-2.02,1.09-2.51,2.84-2.5,3.49.03,6.99-.05,10.48,0,1.77.03,2.83-.39,2.76-2.48-.06-1.85-1.1-2.19-2.59-2.19-2.66,0-5.32-.02-7.98-.02q-12.09,0-12.08,12.27ZM291.86,356.26c3.32.09,7.26-.53,10.43-3.32,1.7-1.5,4.08-3.92,2.18-5.72-1.37-1.3-4.73-1.68-6.96,1.12-3.2,4.01-8.14,4.44-11.35,1.51-3.03-2.77-3.07-9.39-.07-12.29,3.08-2.98,8.35-2.34,11.61,1.79,2.05,2.59,5.05,2.19,6.58,1.08,2.09-1.53.13-4.03-1.32-5.41-4.97-4.73-11.1-4.82-17.28-3.39-5.86,1.36-8.64,5.04-8.95,11.02-.47,8.95,4.43,13.59,15.12,13.61ZM169.3,349.14c-.95-1.93-1.51-2.88-1.9-3.89-1.51-3.86-2.95-7.75-4.44-11.61-1.39-3.6-4.69-2.58-6.78-1.86-2.15.75.02,2.72.55,3.98,2.42,5.81,5.12,11.51,7.5,17.34,1.02,2.5,2.7,2.89,5.07,2.84,2.16-.04,3.63-.36,4.58-2.7,2.58-6.28,5.5-12.42,8.23-18.64.45-1.02,1.98-2.68-.42-3.01-2.64-.37-5.58-1.08-6.81,2.89-1.45,4.66-3.44,9.14-5.56,14.66ZM223.56,153.65c-5.58.06-9.24,3.95-9.08,9.64.15,5.43,4.33,9.6,9.52,9.52,5.21-.08,9.5-4.44,9.49-9.63,0-5.58-4.19-9.6-9.93-9.53ZM185.16,343.02c0,3.16.12,6.32-.04,9.46-.13,2.59.81,3.48,3.42,3.47,2.54,0,3.54-.74,3.46-3.4-.16-5.81-.17-11.63,0-17.43.09-2.81-.82-3.8-3.66-3.77-2.78.03-3.35,1.29-3.23,3.69.14,2.65.03,5.31.03,7.97ZM266.65,343.43c0,2.99.1,5.99-.03,8.98-.11,2.42.49,3.58,3.28,3.57,2.74,0,3.39-1.06,3.34-3.54-.12-5.82-.12-11.65,0-17.47.05-2.46-.57-3.61-3.31-3.61-2.73,0-3.45,1.1-3.32,3.58.15,2.82.04,5.65.04,8.48ZM235.81,200.23c3.99-.12,7.18-3.56,6.98-7.53-.2-3.92-3.65-7.01-7.67-6.88-3.67.12-7.02,3.44-7.04,6.99-.03,4.01,3.66,7.55,7.73,7.43ZM145.74,75.9c3.58-.02,6.6-3.14,6.29-6.82-.32-3.78-2.42-6.04-6.37-6.17-3.83-.13-6.75,2.72-6.62,6.37.13,3.6,3.2,6.64,6.7,6.63ZM297.19,271.75c-.33-2.9-1.85-5.4-5.34-5.6-3.47-.2-5.66,1.93-5.87,5.35-.22,3.5,1.98,5.79,5.29,5.98,3.28.19,5.59-1.68,5.93-5.73ZM64.87,73.36c.43,3.12,2,5.65,5.55,5.52,3.21-.12,5.72-1.87,5.57-5.61-.13-3.24-1.89-5.26-5.22-5.41-3.59-.17-5.41,1.82-5.89,5.5ZM257.91,209.95c-.27-2.75-1.47-4.78-4.44-5.05-2.58-.23-4.16,1.4-4.52,3.7-.44,2.84,1.04,4.93,3.95,5.28,2.71.33,4.21-1.44,5.01-3.94Z"/>
  <path class="cls-1" d="M389.94,20.05c-3.13-10.2-9.91-16.75-19.99-19.99,6,0,12,.09,17.99-.05,1.74-.04,2.1.32,2.06,2.06-.14,5.99-.05,12-.05,17.99Z"/>
  <path class="cls-1" d="M20.05.06C10.16,2.99,3.92,9.77.06,19.05.06,13.46.15,7.86,0,2.27-.04.4.44-.03,2.29,0c5.92.13,11.84.05,17.77.05Z"/>
  <path class="cls-1" d="M369.95,389.94c9.89-2.94,16.13-9.71,19.99-18.99,0,5.66-.09,11.33.05,16.99.05,1.74-.32,2.1-2.06,2.06-5.99-.14-12-.05-17.99-.05Z"/>
  <path class="cls-1" d="M.06,370.95c3.54,9.12,9.99,15.34,18.99,18.99-5.66,0-11.33-.09-16.99.05-1.74.05-2.1-.32-2.06-2.06.15-5.66.05-11.33.05-16.99Z"/>
  <path class="cls-3" d="M206.21,262.64c9.79,13.93,23.16,23.74,37.47,32.41,8.69,5.27,17.96,9.24,28.78,11.3-3.22,2.38-6.33,2.94-9.33,3.54-31.88,6.37-57.8-4.95-80-27.12-14.56-14.53-25.03-31.85-34.09-50.15-7.58-15.32-16.66-29.65-29.79-40.9-15.83-13.56-33.92-20.71-55.11-18.68-6.13.59-11.38,3.24-16.51,6.5-3.08-17.79,1.21-30,19.18-34.43,34.04-8.39,67.46-6.48,98.05,12.96,14.42,9.16,23.81,23.03,32.66,37.24,7.94,12.74,15.9,25.41,28.52,34.31,13.48,9.51,30.2,10.45,42.63,2.08,12.41-8.35,20.05-27.38,16.74-41.8-1.66-7.24-6.05-11.48-13.47-12.91-13.36-2.58-22.96-10.14-28.4-22.68-3.12-7.19-3.68-14.63-1.7-23.42,4.25,6.83,8.94,11.54,16.54,11.61,1.99.02,3.99-.12,5.97-.26,12.77-.91,20.9,3.97,26.09,15.69.33.75.69,1.49,1.07,2.3,2.11-.65,1.94-2.62,2.54-4.01,4.05-9.36,12.35-14.62,22.56-14.13,2.49.12,4.99.48,7.48.45,7.99-.08,13.36-4.24,17.17-12.56,3.13,11.21,1.41,20.52-3.52,29.23-5.66,9.99-14.46,15.94-25.78,17.84-3.87.65-5.36,1.88-5.42,6.26-.38,25.14-5.96,48.79-21.4,69.36-9.42,12.55-20.78,22.87-34.2,31.01-2.51,1.52-4.14,1.34-6.6-.39-11.74-8.21-24.35-14.99-37.02-21.64-.44-.65-1.17-.91-1.68-.44-.75.69.24,1,.59,1.43ZM167.71,236.93c5.38.08,9.73-4.01,9.78-9.19.05-5.14-4.24-9.66-9.34-9.83-5.21-.17-9.57,4.04-9.64,9.31-.08,5.4,3.94,9.63,9.2,9.71Z"/>
  <path class="cls-1" d="M290.04,73.01c0,5.62,0,10.44,0,15.26,0,.66.12,1.71-.23,1.92-5.36,3.31-1.22,6.46.26,9.4,4.27,8.49,7.89,17.21,10.67,26.31,1.05,3.44.35,5.24-3.19,6.73-7.19,3.03-7.09,3.28-9.55-4.24-2.9-8.88-6.82-17.3-11.02-25.64-2.26-4.48-4.59-6.1-9.01-2.94-.75.54-1.82.63-2.8.94-.14-.71-.4-1.23-.3-1.68,2.88-13.68-5.16-21.53-14.93-28.74-12.26-9.06-12.15-9.2-25.57-2.38-7.69,3.91-15.39,7.81-23.99,12.18,0-6.55-.06-12.42.04-18.3.03-1.75,1.66-2.35,2.97-3.05,3.8-2.02,7.61-4.04,12.64-6.7-24.74-7.53-48.18-6.93-71.05,1.81-31.2,11.92-53.17,33.7-65.44,65.41,7.04-3.42,14.07-6.87,21.13-10.27q9.22-4.44,9.23,5.66c0,1,0,2,0,3,0,7.3-3.03,10.54-10.34,10.46-12.02-.14-23.95.48-35.71,3.08-4.8,1.06-2.55-2.21-2.19-3.67,3.72-15.06,10.35-28.85,19.71-41.12,28.29-37.09,65.57-55.62,112.51-52.25,31.46,2.26,57.61,16.45,79.1,39.13,4.05,4.28,7.07,5.63,11.87,2.14,1.3-.94,2.95-1.41,5.22-2.45Z"/>
  <path class="cls-1" d="M131.94,293.18c-8.15-1.9-14.88-6.09-20.1-12.16-20.17-23.46-33.74-50.04-36.89-81.23-1.3-12.92-.17-13.66,12.21-10.09,3.68,1.06,7.78,1.75,10.53,4.28,3.07,2.82.28,6.86.26,10.33-.21,33.15,9.97,62.35,32.49,86.98.54.59,1,1.26,1.5,1.89Z"/>
  <path class="cls-1" d="M161.64,300.91c-6.47.06-11.05-1.95-15.26-4.93-12.39-8.79-21.11-20.61-27.83-34.06-8.7-17.41-13.53-35.7-12.64-55.29.09-1.9-.52-4.58,1.53-5.4,1.74-.7,2.94,1.77,4.45,2.72.42.26.75.66,1.13.98,5.69,4.73,8.42,9.86,8.42,18.17,0,29.28,13.05,53.08,34.26,72.69,1.66,1.53,3.42,2.96,5.93,5.12Z"/>
  <path class="cls-1" d="M95.71,274.88c-19.93-18.01-35.12-38.64-42.88-64.24-1.07-3.52-1.72-7.1-1.98-10.77-.5-7.02,6.45-13.14,13.54-12.02,2.38.38,2.34,2.08,2.33,3.7-.06,19.58,5.82,37.64,14.13,55.07,3.8,7.97,8.32,15.53,13.1,22.95.95,1.48,2.58,2.73,1.76,5.31Z"/>
  <path class="cls-1" d="M129.03,226.09c16.25,27.66,29.23,57.32,57.43,75.95-5.04.98-9.59-.41-13.86-2.77-8.55-4.73-15.74-11.17-21.82-18.75-12.21-15.23-20.64-32.11-21.75-52.02-.04-.8,0-1.61,0-2.41Z"/>
  <path class="cls-1" d="M113.22,340.07c-1.64,4.09-3.32,8.15-4.89,12.26-.81,2.12-1.56,3.72-4.45,3.66-2.75-.06-3.19-1.71-3.92-3.6-1.66-4.27-3.42-8.5-6.22-12.62,0,4.2-.09,8.4.04,12.59.08,2.45-.54,3.63-3.31,3.59-2.57-.03-3.53-.81-3.46-3.44.15-5.49-.04-10.99.09-16.48.04-1.72-1.11-4.67,2.18-4.46,2.97.19,6.86-2.16,8.72,2.35,1.89,4.56,3.78,9.12,6.1,14.73,2.25-5.42,4.27-9.7,5.81-14.14,1.75-5.05,5.77-2.83,8.86-2.95,3.66-.14,2.17,3.07,2.24,4.88.18,5.32-.03,10.66.1,15.98.06,2.49-.61,3.51-3.33,3.55-2.98.04-3.16-1.49-3.12-3.72.08-3.96.02-7.93.02-11.9-.49-.1-.98-.19-1.47-.29Z"/>
  <path class="cls-1" d="M161.4,87.92c-2.25-6.83,1.95-10.6,8.95-13.16,4.97-1.81,9.61-4.53,14.34-6.94,2.41-1.22,3.39-.6,3.15,2.05-.01.16,0,.33,0,.5q.58,15.33-13.14,22.29c-1.48.75-2.94,1.55-4.43,2.28q-8.9,4.33-8.88-7.03Z"/>
  <path class="cls-1" d="M148.85,85.51c0,4.53-.48,8.09.1,11.48,1.13,6.5-2,9.57-7.52,11.86-6.11,2.54-11.94,5.73-18.92,9.13,0-6.38,0-11.98,0-17.58,0-1.53.94-2.45,2.18-3.07,7.73-3.8,15.47-7.57,24.14-11.81Z"/>
  <path class="cls-1" d="M251.96,87.64c0,6.3-.04,11.74.02,17.18.02,1.59-.76,2.4-2.07,3.03-6.89,3.33-13.78,6.67-20.64,10.05-1.7.84-2.87.93-2.83-1.46,0-.33,0-.67-.02-1q-.98-15.29,12.79-21.79c4.02-1.9,8.03-3.79,12.75-6.01Z"/>
  <path class="cls-1" d="M235.46,343.85q0-12.53,12.85-12.42c9.75.08,13.65,3.35,13.83,11.59.19,8.82-3.66,12.77-12.54,12.86-.66,0-1.33,0-1.99,0q-12.15,0-12.15-12.04ZM246.84,351.07c6.5-.05,8.56-1.99,8.55-7.52,0-5.43-2.41-7.15-8.73-7.54-7.1-.44-3.93,4.67-4.61,7.72-.14.63.07,1.34-.04,1.98-.7,4.32.86,6.32,4.82,5.36Z"/>
  <path class="cls-1" d="M139.95,356.27c-8.19.01-13.32-2.81-15.01-8.02-2.65-8.2,1.33-15.15,9.76-16.92,2.95-.62,5.97-.6,8.92-.12,7.48,1.2,11.13,5.64,10.91,12.99-.22,7.15-4.34,11.26-12.01,11.94-.99.09-1.99.11-2.57.13ZM139.36,335.76c-4.73.04-7.87,3.11-7.94,7.74-.07,4.76,3.39,8.24,8.12,8.19,4.54-.05,7.83-3.33,7.91-7.88.09-4.9-3.12-8.1-8.1-8.05Z"/>
  <path class="cls-1" d="M196.47,343.7q0-12.27,12.08-12.27c2.66,0,5.32.02,7.98.02,1.49,0,2.53.33,2.59,2.19.07,2.09-.99,2.5-2.76,2.48-3.49-.06-6.99.03-10.48,0-1.75-.02-2.8.47-2.84,2.5-.05,2.08,1.02,2.53,2.78,2.51,3.33-.04,6.66.05,9.98-.02,1.63-.03,2.51.51,2.49,2.25-.01,1.66-.74,2.37-2.43,2.34-3.33-.07-6.66.06-9.98-.02-2.16-.05-2.9.84-2.87,2.97.03,2.11,1.13,2.46,2.85,2.44,3.49-.04,6.99.04,10.48-.02,1.71-.03,2.89.21,2.9,2.34,0,1.97-.81,2.56-2.71,2.53-5.65-.09-11.31-.13-16.97.01-2.49.06-3.19-1-3.11-3.25.1-2.99.02-5.99.02-8.98Z"/>
  <path class="cls-1" d="M291.86,356.26c-10.69-.02-15.59-4.66-15.12-13.61.31-5.98,3.09-9.66,8.95-11.02,6.18-1.43,12.31-1.35,17.28,3.39,1.45,1.38,3.41,3.88,1.32,5.41-1.52,1.12-4.53,1.52-6.58-1.08-3.26-4.13-8.53-4.77-11.61-1.79-3,2.9-2.96,9.52.07,12.29,3.21,2.93,8.15,2.5,11.35-1.51,2.23-2.8,5.59-2.42,6.96-1.12,1.89,1.8-.48,4.22-2.18,5.72-3.17,2.79-7.11,3.41-10.43,3.32Z"/>
  <path class="cls-1" d="M169.3,349.14c2.12-5.52,4.11-10.01,5.56-14.66,1.23-3.97,4.17-3.25,6.81-2.89,2.4.33.87,1.99.42,3.01-2.72,6.22-5.64,12.36-8.23,18.64-.96,2.33-2.42,2.66-4.58,2.7-2.36.04-4.05-.34-5.07-2.84-2.38-5.83-5.08-11.52-7.5-17.34-.52-1.26-2.7-3.24-.55-3.98,2.1-.73,5.39-1.75,6.78,1.86,1.49,3.87,2.93,7.75,4.44,11.61.4,1.02.95,1.97,1.9,3.89Z"/>
  <path class="cls-1" d="M223.56,153.65c5.74-.07,9.93,3.95,9.93,9.53,0,5.19-4.29,9.55-9.49,9.63-5.19.08-9.37-4.09-9.52-9.52-.16-5.69,3.5-9.58,9.08-9.64Z"/>
  <path class="cls-1" d="M185.16,343.02c0-2.66.11-5.32-.03-7.97-.12-2.4.44-3.66,3.23-3.69,2.84-.03,3.75.96,3.66,3.77-.18,5.81-.17,11.63,0,17.43.07,2.66-.92,3.39-3.46,3.4-2.61,0-3.56-.89-3.42-3.47.16-3.15.04-6.31.04-9.46Z"/>
  <path class="cls-1" d="M266.65,343.43c0-2.83.12-5.66-.04-8.48-.14-2.49.59-3.59,3.32-3.58,2.74,0,3.36,1.16,3.31,3.61-.12,5.82-.12,11.65,0,17.47.05,2.48-.6,3.53-3.34,3.54-2.79,0-3.39-1.15-3.28-3.57.13-2.99.03-5.99.03-8.98Z"/>
  <path class="cls-1" d="M235.81,200.23c-4.07.12-7.76-3.42-7.73-7.43.02-3.55,3.37-6.88,7.04-6.99,4.03-.13,7.47,2.97,7.67,6.88.2,3.97-2.99,7.41-6.98,7.53Z"/>
  <path class="cls-1" d="M145.74,75.9c-3.5.01-6.58-3.03-6.7-6.63-.13-3.65,2.79-6.49,6.62-6.37,3.95.13,6.05,2.39,6.37,6.17.31,3.68-2.71,6.81-6.29,6.82Z"/>
  <path class="cls-1" d="M297.19,271.75c-.34,4.05-2.64,5.92-5.93,5.73-3.31-.19-5.51-2.48-5.29-5.98.21-3.42,2.41-5.55,5.87-5.35,3.49.2,5.02,2.7,5.34,5.6Z"/>
  <path class="cls-1" d="M64.87,73.36c.48-3.68,2.3-5.67,5.89-5.5,3.33.16,5.09,2.18,5.22,5.41.15,3.74-2.36,5.49-5.57,5.61-3.54.13-5.12-2.4-5.55-5.52Z"/>
  <path class="cls-1" d="M257.91,209.95c-.8,2.49-2.3,4.26-5.01,3.94-2.92-.35-4.39-2.44-3.95-5.28.35-2.3,1.94-3.94,4.52-3.7,2.97.27,4.17,2.3,4.44,5.05Z"/>
  <path class="cls-2" d="M167.71,236.93c-5.27-.08-9.28-4.31-9.2-9.71.08-5.27,4.43-9.48,9.64-9.31,5.1.17,9.39,4.68,9.34,9.83-.05,5.18-4.4,9.27-9.78,9.19Z"/>
  <path class="cls-2" d="M206.21,262.64c-.36-.43-1.34-.73-.59-1.43.51-.47,1.25-.21,1.68.44-.36.33-.72.66-1.09.99Z"/>
  <path class="cls-2" d="M246.84,351.07c-3.96.96-5.53-1.04-4.82-5.36.11-.65-.11-1.35.04-1.98.68-3.05-2.49-8.16,4.61-7.72,6.32.39,8.72,2.11,8.73,7.54,0,5.54-2.05,7.48-8.55,7.52Z"/>
  <path class="cls-2" d="M139.36,335.76c4.97-.04,8.18,3.15,8.1,8.05-.08,4.55-3.37,7.83-7.91,7.88-4.74.05-8.2-3.44-8.12-8.19.07-4.63,3.21-7.7,7.94-7.74Z"/>
</svg>