<?xml version="1.0" encoding="UTF-8"?>
<svg version="1.1" xmlns="http://www.w3.org/2000/svg" width="647" height="611">
<path d="M0 0 C2.65941348 0.0194667 5.31637082 0.02965435 7.97558594 0.02050781 C28.21450714 -0.04497432 47.92253187 1.00656303 67.65649414 5.77905273 C68.55424561 5.99142578 69.45199707 6.20379883 70.37695312 6.42260742 C121.44076538 18.76642521 165.00351394 46.10839117 201.53149414 83.46655273 C205.61113695 82.16500267 205.61113695 82.16500267 209.53149414 80.46655273 C213.18780005 80.00992403 216.8512661 79.90967104 220.53149414 79.77905273 C221.53567383 79.69977539 222.53985352 79.62049805 223.57446289 79.53881836 C229.37195915 79.37756846 233.54793606 80.3628291 238.25415039 83.84155273 C246.62824918 93.2948052 243.2928315 109.06573833 242.82373047 120.78222656 C242.20183215 138.52136484 244.52213 150.5137518 253.2170105 166.01535034 C256.17966059 171.53999497 258.08313409 177.48184568 260.09399414 183.40405273 C260.50456055 184.5687207 260.91512695 185.73338867 261.33813477 186.93334961 C264.47364638 195.93068229 266.8724055 203.88341015 266.65649414 213.46655273 C266.6474707 214.2412793 266.63844727 215.01600586 266.62915039 215.81420898 C266.60588802 217.69846116 266.57003054 219.58255105 266.53149414 221.46655273 C270.3228926 221.58426991 274.11381149 221.65430472 277.90649414 221.71655273 C279.4978418 221.76682617 279.4978418 221.76682617 281.12133789 221.81811523 C288.17634932 221.90467979 294.40587032 221.22974478 300.53149414 217.46655273 C302.08106012 215.5825463 303.18616598 213.77894952 304.32055664 211.62280273 C306.47506678 207.78638468 309.53206476 204.66057597 312.53149414 201.46655273 C313.05485352 200.74854492 313.57821289 200.03053711 314.11743164 199.29077148 C319.64383288 195.11467217 328.41922522 196.21750288 335.02270508 196.91186523 C340.36781341 198.09365641 343.20505595 201.35016766 346.66821289 205.37670898 C350.63254378 211.95068327 350.84936587 218.19315585 350.86743164 225.68530273 C350.87408844 226.66084106 350.88074524 227.63637939 350.88760376 228.64147949 C350.89769692 230.70229215 350.90242182 232.76313726 350.90209961 234.82397461 C350.90644214 237.92936314 350.94271299 241.03329303 350.98071289 244.13842773 C351.06507032 258.73658357 349.74362677 271.65973993 342.78149414 284.77905273 C342.43280273 285.4487207 342.08411133 286.11838867 341.72485352 286.80834961 C338.60619261 292.62423076 335.04304353 297.63224865 330.53149414 302.46655273 C329.68772217 303.37171631 329.68772217 303.37171631 328.8269043 304.29516602 C313.92483501 320.12359049 299.18781956 331.07667366 277.53149414 335.46655273 C277.4615625 336.52753174 277.39163086 337.58851074 277.31958008 338.68164062 C274.57087764 379.76683138 274.57087764 379.76683138 270.53149414 397.46655273 C270.33217285 398.34907715 270.13285156 399.23160156 269.92749023 400.14086914 C263.63019188 427.14798934 252.21881014 452.61853576 236.53149414 475.46655273 C237.37067383 475.81717773 238.20985352 476.16780273 239.07446289 476.52905273 C243.38054862 478.94240699 246.42016434 481.95271689 249.84399414 485.46655273 C250.4762793 486.09561523 251.10856445 486.72467773 251.76000977 487.37280273 C258.37631936 494.06711812 257.74330739 499.6576402 257.78149414 508.84155273 C257.81243164 510.69006836 257.81243164 510.69006836 257.84399414 512.57592773 C257.84915039 513.76444336 257.85430664 514.95295898 257.85961914 516.17749023 C257.86896484 517.26336426 257.87831055 518.34923828 257.88793945 519.46801758 C257.151374 525.66424836 252.88080274 529.45569198 248.65649414 533.65405273 C248.13958008 534.18708008 247.62266602 534.72010742 247.09008789 535.26928711 C246.57833008 535.78168945 246.06657227 536.2940918 245.53930664 536.82202148 C245.08185059 537.2824585 244.62439453 537.74289551 244.15307617 538.21728516 C238.61500732 542.48381607 232.22876525 541.79892922 225.59399414 541.77905273 C224.52213867 541.79516602 223.4502832 541.8112793 222.34594727 541.82788086 C214.81086447 541.83254655 210.42072851 541.02737616 204.64477539 535.90795898 C203.70332331 534.95603178 202.76975525 533.99624651 201.84399414 533.02905273 C201.37155273 532.55145508 200.89911133 532.07385742 200.41235352 531.58178711 C197.90126081 529.01434449 195.60468452 526.39952775 193.53149414 523.46655273 C192.72711914 524.23225586 192.72711914 524.23225586 191.90649414 525.01342773 C186.57070871 529.9630708 181.04072239 534.47925865 175.21899414 538.84155273 C174.53772461 539.35298828 173.85645508 539.86442383 173.15454102 540.39135742 C169.71021269 542.94666295 166.26595895 545.3428919 162.53149414 547.46655273 C170.76101425 551.81247908 179.20413783 554.13223293 188.17602539 556.35327148 C195.10759004 558.0973186 200.63806737 559.76772022 205.69946289 565.04467773 C209.88755626 572.86721459 209.38166048 582.95189592 207.53149414 591.46655273 C203.94144686 598.65457235 198.03849288 601.56186474 190.78149414 604.40405273 C188.37870837 605.1385965 185.96128842 605.82699523 183.53149414 606.46655273 C182.4293457 606.76045898 181.32719727 607.05436523 180.19165039 607.35717773 C164.23316671 611.15592997 148.28238858 611.66043686 131.96899414 611.71655273 C130.805439 611.72445328 130.805439 611.72445328 129.61837769 611.73251343 C114.56548882 611.81140343 99.55457809 610.90888165 84.90649414 607.21655273 C84.030979 607.00039307 83.15546387 606.7842334 82.25341797 606.56152344 C65.64168361 602.31510816 49.75659797 595.3755196 35.32836914 586.08374023 C33.51906519 585.26793109 33.51906519 585.26793109 31.60961914 586.03686523 C29.34419599 587.45965838 29.34419599 587.45965838 27.38647461 590.01879883 C23.83838885 593.0607954 21.23763526 593.16407558 16.77368164 593.06030273 C15.658134 593.06036316 15.658134 593.06036316 14.52005005 593.0604248 C12.94825787 593.05507752 11.37646567 593.03752813 9.80493164 593.00854492 C7.43427916 592.9670392 5.06650798 592.96745284 2.69555664 592.97436523 C-4.98259222 592.93962157 -11.88251663 592.6147684 -19.20239258 590.00756836 C-21.94635213 589.35247093 -23.77669651 589.69498182 -26.46850586 590.46655273 C-26.79850586 590.79655273 -27.12850586 591.12655273 -27.46850586 591.46655273 C-45.09888164 593.14134603 -62.63406007 590.62679216 -78.46850586 582.46655273 C-79.07364014 581.94609375 -79.67877441 581.42563477 -80.30224609 580.8894043 C-83.00246459 579.11583578 -84.35618911 579.21400747 -87.54663086 579.45483398 C-88.5348584 579.50639648 -89.52308594 579.55795898 -90.54125977 579.61108398 C-91.58975098 579.66651367 -92.63824219 579.72194336 -93.71850586 579.77905273 C-104.50618984 580.06281187 -111.63705284 578.35360977 -120.67016602 572.59106445 C-122.46742202 571.46723046 -124.29370736 570.46014189 -126.16772461 569.47045898 C-134.85379006 564.84704295 -143.46838039 559.48269587 -149.66772461 551.70874023 C-153.74414785 546.5322326 -153.74414785 546.5322326 -159.66333008 544.11157227 C-162.2308475 543.99679153 -164.77381127 543.98689942 -167.34350586 544.02905273 C-173.56844954 544.13109159 -177.92165089 544.06965331 -182.73779297 539.84008789 C-185.08676658 537.46284139 -187.28222939 534.99563735 -189.46850586 532.46655273 C-190.714313 531.33422506 -191.98296742 530.22610571 -193.28100586 529.15405273 C-204.3220287 519.53619708 -214.79366648 509.46007676 -224.46850586 498.46655273 C-225.15589844 497.68828125 -225.15589844 497.68828125 -225.85717773 496.89428711 C-242.60011207 477.82396616 -256.71873676 456.94854557 -268.46850586 434.46655273 C-268.85780273 433.72211914 -269.24709961 432.97768555 -269.64819336 432.21069336 C-278.62906763 414.77634516 -285.61037223 395.93020657 -288.46850586 376.46655273 C-288.6631543 375.3128418 -288.85780273 374.15913086 -289.05834961 372.97045898 C-289.52839825 369.15251291 -289.44047224 365.42974206 -289.32006836 361.58764648 C-289.28526367 360.33661133 -289.25045898 359.08557617 -289.21459961 357.79663086 C-289.13372313 355.19684354 -289.02946161 352.59768081 -288.90209961 349.99975586 C-288.8750293 348.75000977 -288.84795898 347.50026367 -288.82006836 346.21264648 C-288.75553467 344.5215979 -288.75553467 344.5215979 -288.68969727 342.79638672 C-289.56266206 339.06398331 -290.1519807 338.6757863 -292.95751953 336.32910156 C-296.2904352 333.2610995 -297.02112035 331.21573534 -297.32666016 326.70581055 C-297.35247025 324.44388524 -297.33892624 322.18127842 -297.29272461 319.91967773 C-297.29230667 318.71269226 -297.29188873 317.50570679 -297.29145813 316.262146 C-297.28309423 313.71363573 -297.2576732 311.16513164 -297.21630859 308.61694336 C-297.15641371 304.7429325 -297.15472143 300.87220865 -297.16186523 296.99780273 C-297.14644719 294.51340384 -297.12767526 292.02902303 -297.10522461 289.54467773 C-297.10391037 288.39847961 -297.10259613 287.25228149 -297.10124207 286.0713501 C-296.75254073 268.89983752 -288.60506564 258.0636377 -276.71850586 246.46655273 C-275.85612305 245.60932617 -274.99374023 244.75209961 -274.10522461 243.86889648 C-267.77884896 237.62172428 -267.77884896 237.62172428 -265.46850586 236.46655273 C-266.6885853 233.77599993 -266.6885853 233.77599993 -268.46850586 231.46655273 C-269.9770284 217.14131719 -267.91891292 204.01712968 -263.46850586 190.46655273 C-263.22213379 189.67603516 -262.97576172 188.88551758 -262.72192383 188.07104492 C-256.82534665 169.19135295 -248.48961838 150.91927372 -237.46850586 134.46655273 C-238.54100586 134.21905273 -239.61350586 133.97155273 -240.71850586 133.71655273 C-245.37889836 132.00440137 -248.40965283 128.98777374 -251.84350586 125.52905273 C-252.3671875 125.00279297 -252.89086914 124.4765332 -253.43041992 123.93432617 C-260.33954158 116.75514112 -259.92185197 110.88853669 -260.03100586 101.21655273 C-260.08063477 99.9184668 -260.13026367 98.62038086 -260.18139648 97.28295898 C-260.29640944 86.53746314 -260.29640944 86.53746314 -256.20288086 81.82202148 C-254.98475431 80.67454906 -253.74210547 79.55212598 -252.46850586 78.46655273 C-251.68862305 77.6428418 -250.90874023 76.81913086 -250.10522461 75.97045898 C-249.46198242 75.32979492 -248.81874023 74.68913086 -248.15600586 74.02905273 C-247.49987305 73.3703418 -246.84374023 72.71163086 -246.16772461 72.03295898 C-241.84598506 68.04901057 -235.93691922 69.0905749 -230.36694336 69.0065918 C-228.3713825 68.96710435 -226.37680991 68.88509196 -224.38256836 68.80249023 C-213.51150743 68.64844686 -213.51150743 68.64844686 -209.03881836 72.49780273 C-207.82075487 73.79502198 -206.63154276 75.11977822 -205.46850586 76.46655273 C-203.97549456 77.95277321 -202.47555388 79.43206758 -200.96850586 80.90405273 C-199.79927258 82.08902569 -198.63163257 83.27558522 -197.46850586 84.46655273 C-196.90566895 83.88800537 -196.34283203 83.30945801 -195.76293945 82.71337891 C-175.05409043 61.50442827 -175.05409043 61.50442827 -164.19946289 53.71459961 C-162.35082927 52.38170609 -160.53363614 51.01139037 -158.71459961 49.63842773 C-112.51693518 15.33373531 -57.06445638 -0.4544302 0 0 Z M-14.46069336 69.27124023 C-15.57831055 69.44268555 -16.69592773 69.61413086 -17.84741211 69.79077148 C-19.00112305 69.9725293 -20.15483398 70.15428711 -21.34350586 70.34155273 C-22.48948242 70.51557617 -23.63545898 70.68959961 -24.81616211 70.86889648 C-30.79626894 71.79791193 -36.62904235 72.87397178 -42.46850586 74.46655273 C-41.80850586 78.75655273 -41.14850586 83.04655273 -40.46850586 87.46655273 C-39.31737305 86.9212793 -38.16624023 86.37600586 -36.98022461 85.81420898 C-36.21943604 85.45383545 -35.45864746 85.09346191 -34.67480469 84.72216797 C-33.42799927 84.13157593 -33.42799927 84.13157593 -32.15600586 83.52905273 C-21.46850586 78.46655273 -21.46850586 78.46655273 -10.78100586 73.40405273 C-9.94980225 73.01032471 -9.11859863 72.61659668 -8.26220703 72.2109375 C-5.36535645 70.83874512 -5.36535645 70.83874512 -2.46850586 69.46655273 C-2.46850586 69.13655273 -2.46850586 68.80655273 -2.46850586 68.46655273 C-6.56463437 68.38808868 -10.41320605 68.648799 -14.46069336 69.27124023 Z M-116.53100586 108.52905273 C-117.21203369 109.0356543 -117.89306152 109.54225586 -118.59472656 110.06420898 C-119.95005177 111.07486166 -121.30352936 112.08799741 -122.6550293 113.10375977 C-124.11163151 114.19836848 -125.57426513 115.28494903 -127.03881836 116.36889648 C-137.88759501 124.55551945 -147.67604842 134.11637645 -156.46850586 144.46655273 C-156.46850586 144.79655273 -156.46850586 145.12655273 -156.46850586 145.46655273 C-154.02916361 145.60157168 -151.59726482 145.7005917 -149.15600586 145.77905273 C-148.12056641 145.84189453 -148.12056641 145.84189453 -147.06420898 145.90600586 C-144.77557461 146.0149686 -144.77557461 146.0149686 -141.46850586 145.46655273 C-139.57897091 143.23409077 -139.57897091 143.23409077 -138.46850586 140.46655273 C-132.70841419 132.85228908 -124.99692646 129.36168941 -116.57299805 125.4543457 C-113.17168939 123.85786139 -109.82265736 122.15926555 -106.46850586 120.46655273 C-104.46850586 119.46655273 -102.46850586 118.46655273 -100.46850586 117.46655273 C-101.50866039 115.30554203 -102.4645363 113.47151469 -103.96850586 111.59155273 C-105.78522635 109.01786538 -106.58032356 106.47270822 -107.46850586 103.46655273 C-111.04751042 103.46655273 -113.74967463 106.44364523 -116.53100586 108.52905273 Z M106.31665039 105.95874023 C105.24721191 106.494104 104.17777344 107.02946777 103.07592773 107.58105469 C101.92688965 108.16201904 100.77785156 108.7429834 99.59399414 109.34155273 C98.4191748 109.93218506 97.24435547 110.52281738 96.03393555 111.13134766 C89.12223282 114.61280446 82.24774019 118.16098907 75.40649414 121.77905273 C74.6441748 122.17777588 73.88185547 122.57649902 73.09643555 122.98730469 C69.50379812 124.86992134 65.95042926 126.79092064 62.44165039 128.82592773 C54.31787762 133.39982493 47.80470389 135.37823255 38.38085938 135.08007812 C35.94532937 134.98775538 35.94532937 134.98775538 32.53149414 135.46655273 C30.82181026 137.58947555 30.82181026 137.58947555 29.53149414 140.46655273 C24.20847639 147.41737295 16.77999958 150.85629398 9.09399414 154.65405273 C7.79962827 155.3024652 6.50568842 155.95172872 5.2121582 156.60180664 C3.23932041 157.59258636 1.26581322 158.58180466 -0.71084595 159.56494141 C-4.8935409 161.65020664 -9.01343882 163.82610054 -13.11303711 166.07202148 C-22.94619906 171.38149583 -30.80511843 175.43023425 -42.12866211 175.16796875 C-45.38637516 175.13824212 -47.16073035 175.25523676 -49.88647461 177.12670898 C-51.73194515 179.19532646 -51.73194515 179.19532646 -53.04663086 181.36108398 C-58.73887327 189.7899814 -71.46486097 193.94008889 -80.21923828 198.39453125 C-82.49419557 199.55924086 -84.76228425 200.737474 -87.02294922 201.9296875 C-109.88494273 213.98090602 -109.88494273 213.98090602 -122.11869812 213.29972839 C-124.3633154 213.13517629 -124.3633154 213.13517629 -127.46850586 213.46655273 C-129.4808556 215.74360628 -129.4808556 215.74360628 -130.46850586 218.46655273 C-130.96350586 219.45655273 -130.96350586 219.45655273 -131.46850586 220.46655273 C-130.88810547 220.52601074 -130.30770508 220.58546875 -129.7097168 220.64672852 C-85.54533307 225.31779598 -43.57237036 236.90283118 -9.46850586 266.46655273 C-8.69764648 267.12655273 -7.92678711 267.78655273 -7.13256836 268.46655273 C4.70262731 278.84692369 15.88207041 290.02132011 25.53149414 302.46655273 C26.2030957 303.2825293 26.87469727 304.09850586 27.56665039 304.93920898 C32.6852208 311.16236492 37.15840649 317.70659093 41.53149414 324.46655273 C42.37366776 325.75839826 43.2161298 327.0500558 44.05883789 328.34155273 C47.91114373 334.2601463 51.74371944 340.18912934 55.48071289 346.18139648 C73.59052741 375.21647615 93.6950968 405.5997148 128.59399414 415.27905273 C140.25416821 417.86521955 148.60109436 415.54723532 159.53149414 411.46655273 C159.53149414 411.13655273 159.53149414 410.80655273 159.53149414 410.46655273 C158.78577148 410.47291748 158.04004883 410.47928223 157.27172852 410.48583984 C153.85732431 410.4945825 150.44558643 410.44974455 147.03149414 410.40405273 C145.85844727 410.41500977 144.68540039 410.4259668 143.47680664 410.43725586 C136.3466631 410.29705641 132.19510702 409.53056077 127.14257812 404.3371582 C126.61092041 403.7198584 126.0792627 403.10255859 125.53149414 402.46655273 C124.9243457 401.7968042 124.31719727 401.12705566 123.69165039 400.43701172 C119.87056504 396.1727412 118.44084701 393.63860232 117.96899414 387.84155273 C117.88520508 386.83866211 117.80141602 385.83577148 117.71508789 384.80249023 C117.65450195 384.03163086 117.59391602 383.26077148 117.53149414 382.46655273 C116.6322522 382.45253418 116.6322522 382.45253418 115.71484375 382.43823242 C112.96543147 382.38412997 110.21764862 382.30056477 107.46899414 382.21655273 C106.52604492 382.20237305 105.5830957 382.18819336 104.61157227 382.17358398 C95.56669216 381.85843137 90.71481176 379.08556203 84.28149414 372.59155273 C83.45133789 371.76913086 82.62118164 370.94670898 81.76586914 370.09936523 C77.53626993 365.1155368 76.15195608 361.00321254 76.16821289 354.49389648 C76.16917969 352.52646484 76.16917969 352.52646484 76.17016602 350.51928711 C76.17846436 349.84341553 76.1867627 349.16754395 76.1953125 348.47119141 C76.2189707 346.40609844 76.21585481 344.34229442 76.20922852 342.27709961 C76.26891687 331.24560684 76.26891687 331.24560684 78.53149414 326.46655273 C77.75547852 326.34022461 76.97946289 326.21389648 76.17993164 326.08374023 C65.43569432 323.64769597 58.06673571 317.22741837 51.53149414 308.46655273 C48.75621171 303.87088848 48.06428992 300.00172266 48.06274414 294.72436523 C48.05513062 293.99716278 48.04751709 293.26996033 48.03967285 292.52072144 C48.02891848 290.98951633 48.02599971 289.45823816 48.03051758 287.92700195 C48.03148882 285.60428409 47.98984604 283.28488739 47.94555664 280.96264648 C47.87977162 273.07784133 47.89815692 266.5311594 53.53149414 260.46655273 C53.97541504 259.94641602 54.41933594 259.4262793 54.87670898 258.89038086 C56.18101011 257.42286365 57.57476412 256.03641696 58.96899414 254.65405273 C59.87520508 253.74010742 60.78141602 252.82616211 61.71508789 251.88452148 C66.8082115 247.51192299 70.99889948 246.09759108 77.67993164 245.95483398 C78.3373233 245.93688278 78.99471497 245.91893158 79.67202759 245.9004364 C81.75011986 245.84670836 83.82798761 245.81256148 85.90649414 245.77905273 C87.3244939 245.74584621 88.74246415 245.71135349 90.16040039 245.67553711 C93.61745713 245.58860527 97.07352767 245.52822618 100.53149414 245.46655273 C100.86149414 235.89655273 101.19149414 226.32655273 101.53149414 216.46655273 C95.72740099 216.53182266 95.72740099 216.53182266 89.92651367 216.70922852 C84.4285312 216.59411859 81.32942226 214.9740746 77.29370117 211.2512207 C71.42662353 205.10966786 71.06777646 199.95195267 71.20336914 191.71655273 C71.19380188 190.42265625 71.18423462 189.12875977 71.17437744 187.7956543 C71.1597303 185.0714416 71.18071934 182.35053331 71.2277832 179.62670898 C71.28479168 176.16140827 71.25192921 172.70384798 71.19205856 169.23883057 C71.14690262 165.89747681 71.17866106 162.55812545 71.20336914 159.21655273 C71.17300568 157.3723877 71.17300568 157.3723877 71.14202881 155.4909668 C71.32820667 148.59108448 72.3636382 144.8580363 77.23535156 139.82836914 C82.60176226 134.98711989 88.57475863 131.86256773 95.09399414 128.84155273 C96.22699951 128.29523193 97.36000488 127.74891113 98.52734375 127.18603516 C101.85156901 125.58936003 105.18791099 124.02221925 108.53149414 122.46655273 C109.46864258 122.02939941 110.40579102 121.59224609 111.37133789 121.1418457 C112.22856445 120.74239746 113.08579102 120.34294922 113.96899414 119.93139648 C115.15706665 119.37669678 115.15706665 119.37669678 116.36914062 118.81079102 C117.81513724 118.14023448 119.2650141 117.47796095 120.71923828 116.82543945 C124.27485237 115.38357664 124.27485237 115.38357664 126.53149414 112.46655273 C124.41034455 110.96083528 122.28495799 109.46186595 120.15649414 107.96655273 C119.55321289 107.53729492 118.94993164 107.10803711 118.32836914 106.66577148 C113.07450993 102.98807003 111.91922069 103.14543847 106.31665039 105.95874023 Z M160.28149414 183.27905273 C159.3447563 184.66149648 158.42646217 186.05670852 157.53149414 187.46655273 C155.31054819 190.00002078 153.12850857 191.31759975 150.08227539 192.72827148 C148.8109375 193.32285156 148.8109375 193.32285156 147.51391602 193.92944336 C146.19230469 194.535625 146.19230469 194.535625 144.84399414 195.15405273 C143.95131836 195.56977539 143.05864258 195.98549805 142.13891602 196.41381836 C139.93908433 197.43726947 137.73662595 198.45458478 135.53149414 199.46655273 C135.93996582 199.94213623 136.3484375 200.41771973 136.76928711 200.90771484 C137.5758374 201.84756226 137.5758374 201.84756226 138.39868164 202.80639648 C138.93090332 203.42635498 139.463125 204.04631348 140.01147461 204.68505859 C142.71664872 207.85557827 145.20954582 210.90314317 147.28149414 214.52905273 C150.51865981 218.75535235 154.50551641 220.9509952 159.79052734 221.85144043 C162.2215749 222.02008205 164.62592063 222.07233638 167.06274414 222.07592773 C167.93926636 222.09246399 168.81578857 222.10900024 169.71887207 222.1260376 C172.48981949 222.17421777 175.26021937 222.19582121 178.03149414 222.21655273 C179.92214625 222.24473758 181.81277318 222.27466849 183.70336914 222.30639648 C188.31269899 222.37996828 192.92173022 222.42972542 197.53149414 222.46655273 C194.8644688 214.2010969 192.17606132 206.05122728 188.53149414 198.15405273 C188.19118164 197.4020459 187.85086914 196.65003906 187.50024414 195.87524414 C184.97853567 190.33870902 182.34966916 184.85902225 179.53149414 179.46655273 C168.89801379 178.10273625 168.89801379 178.10273625 160.28149414 183.27905273 Z M124.53149414 304.46655273 C123.21149414 306.77655273 121.89149414 309.08655273 120.53149414 311.46655273 C121.95461914 311.68311523 121.95461914 311.68311523 123.40649414 311.90405273 C131.75929885 314.27604596 138.30578594 322.90091936 143.53149414 329.46655273 C144.67803896 331.75964237 144.72878531 333.2656493 144.84790039 335.81811523 C144.88979492 336.66889648 144.93168945 337.51967773 144.97485352 338.39624023 C145.01416992 339.28569336 145.05348633 340.17514648 145.09399414 341.09155273 C145.13717773 341.98874023 145.18036133 342.88592773 145.22485352 343.81030273 C145.33106275 346.02889556 145.43310608 348.24760153 145.53149414 350.46655273 C146.48411133 350.50393555 147.43672852 350.54131836 148.41821289 350.57983398 C149.6724707 350.64557617 150.92672852 350.71131836 152.21899414 350.77905273 C153.46036133 350.83706055 154.70172852 350.89506836 155.98071289 350.95483398 C162.17476388 351.847486 165.46663522 355.12585633 169.78149414 359.46655273 C171.08860352 360.76592773 171.08860352 360.76592773 172.42211914 362.09155273 C176.98192962 367.22556157 175.9082317 374.13826306 176.03149414 380.65405273 C176.08563477 381.86125977 176.13977539 383.0684668 176.19555664 384.31225586 C176.28785066 390.34103326 176.26822424 394.44735587 172.18383789 399.11108398 C170.98202143 400.24635293 169.76519087 401.36601161 168.53149414 402.46655273 C167.53210105 403.61594036 166.55064645 404.78135451 165.59399414 405.96655273 C164.91336914 406.79155273 164.23274414 407.61655273 163.53149414 408.46655273 C173.79885203 405.35523216 178.71253122 396.40146575 183.53149414 387.46655273 C189.80564623 375.58881602 196.14162199 362.26097979 192.84008789 348.60717773 C190.89661501 342.45962336 189.42239073 339.57636756 183.53149414 336.46655273 C180.11693007 335.3583298 176.64799188 334.54428497 173.15649414 333.71655273 C154.18954828 328.84956878 140.81434911 320.27877721 127.21118164 306.11889648 C125.80537676 304.34967267 125.80537676 304.34967267 124.53149414 304.46655273 Z " fill="#FEFEFE" transform="translate(296.468505859375,-0.466552734375)"/>
<path d="M0 0 C2.27596692 2.12998653 3.93645211 4.28179169 5.5625 6.9375 C5.97628906 7.60652344 6.39007813 8.27554688 6.81640625 8.96484375 C8 11 8 11 9.046875 13.19140625 C10.32286718 15.61265371 11.49557379 15.91700488 14 17 C17.375 19 17.375 19 19.0234375 20 C24.08638455 22.561491 28.41456507 23.22177922 34.05859375 23.0546875 C35.42902556 23.02935152 36.7994689 23.00463293 38.16992188 22.98046875 C40.28904008 22.93141846 42.40752092 22.87596017 44.52612305 22.80810547 C60.74798366 22.32295857 74.81950246 25.01525421 87.39453125 36.11328125 C93.58542767 42.38855104 102 53.78712141 102 63 C102.66 63 103.32 63 104 63 C104.185625 61.783125 104.37125 60.56625 104.5625 59.3125 C107.42342788 46.6283862 115.0852456 36.6105036 125.875 29.6875 C136.54799292 23.70932436 147.53707436 22.8557253 159.55859375 23.0859375 C178.48811956 23.52670565 178.48811956 23.52670565 194.28125 13.93359375 C198.0069238 9.74221072 200.537508 5.00263014 203 0 C203.66 0 204.32 0 205 0 C210.54586006 19.01120829 207.36239304 40.38798996 198.03515625 57.65625 C185.96887072 77.48108765 169.11294212 89.61482222 146.6953125 95.30859375 C142.14725644 96.15955139 137.60751851 96.6103296 133 97 C133.02320313 98.22589844 133.04640625 99.45179688 133.0703125 100.71484375 C133.91701113 165.86573771 114.61489723 226.58781452 69 274 C68.40026367 274.62696777 67.80052734 275.25393555 67.18261719 275.89990234 C50.74580355 292.99435397 32.65030448 306.38660717 12 318 C6.66623797 314.65115149 1.37315309 311.26522643 -3.81518555 307.6940918 C-22.99622413 294.58602142 -43.81981203 283.79763696 -64.14501953 272.57714844 C-68.10068301 270.39196064 -72.05092985 268.19707553 -76 266 C-65.49823864 283.04338936 -50.73750648 297.78168467 -35 310 C-34.35869141 310.50176758 -33.71738281 311.00353516 -33.05664062 311.52050781 C-24.27721162 318.38020095 -15.45878261 325.09270022 -6 331 C-5.39816895 331.37688965 -4.79633789 331.7537793 -4.17626953 332.14208984 C16.56964451 345.02726765 38.82723312 355.6439694 63 360 C63 360.66 63 361.32 63 362 C48.62934464 367.52549515 34.19258979 371.11113613 18.72265625 371.203125 C17.95304062 371.20882507 17.18342499 371.21452515 16.39048767 371.22039795 C14.7677444 371.22978632 13.14498259 371.23635718 11.5222168 371.24023438 C9.0997363 371.24985216 6.67813841 371.28089754 4.25585938 371.3125 C-9.89862944 371.40948501 -23.38167417 369.52328945 -36.9375 365.3125 C-37.76540039 365.05831299 -38.59330078 364.80412598 -39.44628906 364.54223633 C-77.14727194 352.55527556 -111.56484407 326.60886686 -135.91015625 295.64453125 C-138.11312274 292.85685216 -140.42653607 290.18778307 -142.75 287.5 C-149.46643638 279.44861975 -155.23957142 270.74962394 -161 262 C-161.67313232 260.9788208 -161.67313232 260.9788208 -162.35986328 259.93701172 C-172.58611523 244.29663023 -181.12844837 227.68840677 -189.6529541 211.08087158 C-202.50189942 186.05342384 -216.62037624 161.4548914 -236.234375 141.0390625 C-238 139 -238 139 -238 137 C-238.66 137 -239.32 137 -240 137 C-242.125 135.125 -242.125 135.125 -244 133 C-244 132.34 -244 131.68 -244 131 C-244.56074219 130.7628125 -245.12148437 130.525625 -245.69921875 130.28125 C-248.52231324 128.70913626 -250.49343112 126.75138484 -252.8125 124.5 C-280.25029381 98.89139244 -318.98135449 85.98129431 -356.09375 86.75 C-370.18364343 87.30124779 -382.97191928 90.98411179 -394.85546875 98.671875 C-395.82508545 99.29674805 -396.79470215 99.92162109 -397.79370117 100.56542969 C-398.52177979 101.03883789 -399.2498584 101.51224609 -400 102 C-400.12532845 97.39601133 -400.21513346 92.79305454 -400.2746582 88.18774414 C-400.29951807 86.62734646 -400.33341932 85.06706162 -400.37719727 83.50708008 C-400.77528298 68.93714286 -398.31220325 57.00528412 -388 46 C-387.37738281 45.32453125 -386.75476563 44.6490625 -386.11328125 43.953125 C-366.19344679 24.37477342 -332.19046665 20.92764468 -305.69140625 20.796875 C-304.73512329 20.78986069 -303.77884033 20.78284637 -302.7935791 20.77561951 C-299.71650439 20.75818782 -296.63962231 20.75176521 -293.5625 20.75 C-292.5102121 20.74932526 -291.45792419 20.74865051 -290.37374878 20.74795532 C-232.69060061 20.80670642 -175.54664887 34.45104307 -133.23388672 75.72265625 C-115.18926556 93.85194718 -101.2318149 115.23641711 -87.82519531 136.89819336 C-66.73422485 170.83960304 -42.62554097 205.50196444 -2 216.875 C18.90603369 221.18446461 38.94055155 217.46186985 56.72167969 205.87841797 C73.70568704 193.96495364 84.78800345 172.98913617 89 153 C91.48917293 136.5050807 91.09008349 120.48144335 82 106 C76.35820613 99.2747703 68.50589795 97.26481993 60.25244141 95.31567383 C38.51379348 90.14331326 21.01778867 78.64777967 8.8125 59.75 C-1.19690682 42.91689148 -5.34611579 23.55370549 -1.5703125 4.22265625 C-1 2 -1 2 0 0 Z " fill="#000000" transform="translate(420,219)"/>
<path d="M0 0 C0.8430368 -0.00067474 1.68607361 -0.00134949 2.55465698 -0.00204468 C23.98474519 0.0251209 44.18186406 2.62929686 64.875 8.25 C65.70451172 8.47026855 66.53402344 8.69053711 67.38867188 8.91748047 C93.20339758 15.85481015 119.27514014 27.38861037 140.875 43.25 C142.35613281 44.32507813 142.35613281 44.32507813 143.8671875 45.421875 C153.4463329 52.49045557 162.62382709 59.9840432 171.4140625 68.01171875 C173.03922249 69.48984046 174.67973906 70.95127261 176.3359375 72.39453125 C183.02669991 78.25158667 188.97245052 84.61804801 194.875 91.25 C197.93742332 90.58979264 200.53891843 89.55543399 203.3515625 88.18359375 C204.186875 87.78076172 205.0221875 87.37792969 205.8828125 86.96289062 C207.6354557 86.10880405 209.38805952 85.25463667 211.140625 84.40039062 C211.97335937 83.99884766 212.80609375 83.59730469 213.6640625 83.18359375 C214.42412598 82.81290771 215.18418945 82.44222168 215.96728516 82.06030273 C217.875 81.25 217.875 81.25 219.875 81.25 C219.99855727 86.32193078 220.08931615 91.39298696 220.1496582 96.46606445 C220.17481005 98.19180559 220.20893619 99.91744012 220.25219727 101.64282227 C220.31282433 104.12282581 220.34120101 106.60142222 220.36328125 109.08203125 C220.38908768 109.85400345 220.4148941 110.62597565 220.44148254 111.42134094 C220.44262695 113.60473633 220.44262695 113.60473633 219.875 117.25 C217.45351906 119.27384 216.04831305 120.25 212.875 120.25 C213.34808594 121.18457031 213.82117188 122.11914062 214.30859375 123.08203125 C216.12170649 126.67573869 217.91642273 130.2783487 219.703125 133.88525391 C220.46368655 135.42000373 221.22657198 136.95360495 221.9921875 138.48583984 C231.34313541 157.27477907 241.17857763 178.27494525 243.875 199.25 C242.9571875 199.70890625 242.039375 200.1678125 241.09375 200.640625 C240.50239258 200.93638428 239.91103516 201.23214355 239.30175781 201.53686523 C238.01490858 202.18012679 236.72779805 202.82286589 235.44042969 203.46508789 C232.69875324 204.83349185 229.96044333 206.20614077 227.234375 207.60546875 C222.07897112 210.25 222.07897112 210.25 219.875 210.25 C219.7205542 209.69465576 219.5661084 209.13931152 219.40698242 208.56713867 C211.78996712 181.5543601 201.5123825 154.70607376 185.875 131.25 C179.935 133.89 173.995 136.53 167.875 139.25 C167.875 126.71 167.875 114.17 167.875 101.25 C166.555 100.92 165.235 100.59 163.875 100.25 C162.12670898 98.81054688 162.12670898 98.81054688 160.37109375 96.96875 C159.39305786 95.96001831 159.39305786 95.96001831 158.39526367 94.9309082 C157.36429565 93.85135864 157.36429565 93.85135864 156.3125 92.75 C145.18569661 81.40123416 133.11221834 72.31889825 119.86816406 63.57519531 C118.28138598 62.52019391 116.72478298 61.41984337 115.1796875 60.3046875 C111.97988303 58.8403702 110.29015466 59.43912098 106.875 60.25 C104.36966686 61.36239036 101.98193523 62.50888549 99.5625 63.78125 C98.13815079 64.51197211 96.71366719 65.24243234 95.2890625 65.97265625 C94.55977539 66.34986816 93.83048828 66.72708008 93.07910156 67.11572266 C89.5482195 68.93278934 85.99217506 70.69882147 82.4375 72.46875 C81.01289034 73.18072853 79.58841174 73.89296938 78.1640625 74.60546875 C75.3046875 76.03515625 72.4453125 77.46484375 69.5859375 78.89453125 C68.87912842 79.24797607 68.17231934 79.6014209 67.4440918 79.96557617 C66.03162451 80.67172893 64.6190284 81.37762407 63.20629883 82.08325195 C59.60967431 83.88010132 56.01566782 85.68190954 52.42578125 87.4921875 C51.70398682 87.85534058 50.98219238 88.21849365 50.23852539 88.59265137 C48.87098593 89.28084424 47.50423192 89.9706011 46.13842773 90.66223145 C42.76975968 92.35534834 39.40138346 93.91414672 35.875 95.25 C35.67693523 89.64514781 35.53193749 84.04233864 35.43554688 78.43481445 C35.39536338 76.52852903 35.34080313 74.62248945 35.27148438 72.71704102 C35.17419079 69.97350509 35.12902796 67.23322978 35.09375 64.48828125 C35.05245972 63.63913651 35.01116943 62.78999176 34.96862793 61.91511536 C34.96677225 59.45687748 35.06548668 57.57372925 35.875 55.25 C38.25603838 52.95052449 40.89196061 51.63568643 43.875 50.25 C45.36966797 49.42375122 45.36966797 49.42375122 46.89453125 48.58081055 C47.81621094 48.10426025 48.73789062 47.62770996 49.6875 47.13671875 C51.20537109 46.3487793 51.20537109 46.3487793 52.75390625 45.54492188 C53.78386719 45.01447266 54.81382812 44.48402344 55.875 43.9375 C56.93589844 43.38771484 57.99679687 42.83792969 59.08984375 42.27148438 C61.68336514 40.92799356 64.27842679 39.58758022 66.875 38.25 C15.66224853 20.58895505 -45.62302337 25.58347408 -94.21484375 48.8046875 C-115.84034534 59.45521459 -135.4614615 72.04617912 -153.09375 88.5625 C-155.125 90.25 -155.125 90.25 -157.125 90.25 C-157.62 91.735 -157.62 91.735 -158.125 93.25 C-159.5078125 94.57421875 -159.5078125 94.57421875 -161.25 95.9375 C-165.36440369 99.36340469 -168.70589628 103.13953339 -172.125 107.25 C-172.57617188 107.77819336 -173.02734375 108.30638672 -173.4921875 108.85058594 C-190.581311 128.87275201 -204.77788625 151.57575543 -214.125 176.25 C-200.57931931 169.80106452 -187.06176599 163.295415 -173.5625 156.75 C-172.83958771 156.3996167 -172.11667542 156.0492334 -171.37185669 155.68823242 C-169.28803249 154.67805842 -167.20450045 153.66728475 -165.12109375 152.65625 C-164.50313934 152.35662354 -163.88518494 152.05699707 -163.24850464 151.74829102 C-160.41938447 150.37430093 -157.60662844 148.9819308 -154.81274414 147.53710938 C-152.125 146.25 -152.125 146.25 -150.125 146.25 C-150.125 159.45 -150.125 172.65 -150.125 186.25 C-166.19262474 195.43149985 -166.19262474 195.43149985 -173.328125 195.14453125 C-174.52489868 195.14833801 -174.52489868 195.14833801 -175.74584961 195.15222168 C-177.42767386 195.15442751 -179.10960118 195.13973787 -180.7911377 195.10855103 C-185.21514396 195.02970393 -189.63822662 195.08697154 -194.0625 195.125 C-194.93392639 195.12913406 -195.80535278 195.13326813 -196.70318604 195.13752747 C-214.76805395 195.26871898 -232.53083988 198.3379802 -250.125 202.25 C-249.65607086 195.48656475 -248.57003811 189.28428951 -246.5625 182.8125 C-246.30001465 181.9555957 -246.0375293 181.09869141 -245.76708984 180.21582031 C-235.33094147 147.15691269 -217.1533423 116.06915011 -194.125 90.25 C-192.81789063 88.77660156 -192.81789063 88.77660156 -191.484375 87.2734375 C-188.73577286 84.22747197 -185.95066923 81.2242921 -183.125 78.25 C-182.32255859 77.40453613 -182.32255859 77.40453613 -181.50390625 76.54199219 C-173.84655497 68.53537373 -165.92698677 61.26139537 -157.02490234 54.66259766 C-155.01963373 53.17165905 -153.03600163 51.65422438 -151.05078125 50.13671875 C-115.38529573 23.2446913 -72.35862925 6.66101327 -28.125 1.25 C-27.40876465 1.15428711 -26.6925293 1.05857422 -25.95458984 0.95996094 C-17.34010024 -0.0682498 -8.66313706 0.00623513 0 0 Z " fill="#010101" transform="translate(299.125,19.75)"/>
<path d="M0 0 C12.75737044 1.47355703 25.27493536 4.91180785 37.09375 9.91015625 C37.7746167 10.19068848 38.4554834 10.4712207 39.15698242 10.76025391 C41.0390625 11.6015625 41.0390625 11.6015625 43.96875 13.34765625 C45.28547931 16.8346093 44.70861377 19.79203765 44.24853516 23.43847656 C42.14541656 45.30650551 43.60178853 67.88839427 47.96875 89.34765625 C48.18305664 90.40484863 48.39736328 91.46204102 48.61816406 92.55126953 C57.38458466 134.45016623 75.48137498 174.2048216 103.96875 206.34765625 C104.82210937 207.32347656 105.67546875 208.29929687 106.5546875 209.3046875 C110.86955549 214.26465324 110.86955549 214.26465324 115.96875 218.34765625 C115.96875 219.00765625 115.96875 219.66765625 115.96875 220.34765625 C111.04413065 219.80632405 107.19699889 218.20951055 102.90625 215.84765625 C101.93594849 215.322323 101.93594849 215.322323 100.94604492 214.78637695 C94.28913084 211.10415712 88.10508252 206.83700775 81.96875 202.34765625 C81.18886719 201.80753906 80.40898437 201.26742187 79.60546875 200.7109375 C79.06535156 200.26105469 78.52523437 199.81117188 77.96875 199.34765625 C77.96875 198.68765625 77.96875 198.02765625 77.96875 197.34765625 C77.13150391 197.00927734 77.13150391 197.00927734 76.27734375 196.6640625 C54.69642836 184.35819366 39.15743251 150.46839965 27.96875 129.34765625 C27.5267627 128.51959473 27.08477539 127.6915332 26.62939453 126.83837891 C8.43345834 92.49411455 -5.05849946 53.76709499 -5.28125 14.53515625 C-5.301875 13.60767578 -5.3225 12.68019531 -5.34375 11.72460938 C-5.34890625 10.83064453 -5.3540625 9.93667969 -5.359375 9.015625 C-5.3687207 8.21406982 -5.37806641 7.41251465 -5.38769531 6.58666992 C-4.85255358 3.22517348 -3.50285892 0.59952778 0 0 Z " fill="#010101" transform="translate(82.03125,335.65234375)"/>
<path d="M0 0 C7.80081527 2.1769717 13.48688062 9.69696285 19.08398438 15.19628906 C21.11785659 17.17176063 21.11785659 17.17176063 24.046875 19.3359375 C27.68780513 22.36231573 29.71120062 24.7875312 30.33984375 29.60351562 C30.68582477 36.0969886 30.42004213 42.56448885 30.11962891 49.05517578 C28.91772145 78.64172228 39.45681406 109.10087532 53 135 C53.32436035 135.62519531 53.6487207 136.25039063 53.98291016 136.89453125 C61.55404051 151.29183351 71.32856837 164.75292075 82 177 C82.44279297 177.50982422 82.88558594 178.01964844 83.34179688 178.54492188 C91.18314771 187.50492907 99.62602963 195.78485648 109.375 202.6796875 C109.91125 203.11539063 110.4475 203.55109375 111 204 C111 204.66 111 205.32 111 206 C111.66 206.33 112.32 206.66 113 207 C98.82814806 208.1115178 85.48192208 201.03770647 74.875 192.1875 C31.20682008 154.44076489 3.48029231 98.66292639 -1.79345703 41.09033203 C-2.20320958 34.9595427 -2.28549642 28.83042867 -2.3125 22.6875 C-2.31813965 21.46514648 -2.3237793 20.24279297 -2.32958984 18.98339844 C-2.27550512 12.3483948 -1.72486995 6.41156838 0 0 Z " fill="#020202" transform="translate(143,362)"/>
<path d="M0 0 C1.19302543 2.38605086 1.14009304 3.90262829 1.17578125 6.56640625 C2.34288821 59.94451981 21.65586678 108.80476055 49 154 C49.48033691 154.79905762 49.96067383 155.59811523 50.45556641 156.42138672 C55.83408479 165.34133245 61.57041711 173.79995226 68 182 C64.00166512 182 63.18841982 180.64185788 60.3125 177.9375 C57.35532445 175.18851641 54.4039799 172.47157193 51.3125 169.875 C40.96453879 160.83105016 31.37924929 150.88732391 23 140 C21.9849038 138.71312437 20.96923621 137.42669933 19.953125 136.140625 C-5.51920733 103.64535254 -33.1329215 59.21422971 -32.4375 16.40234375 C-31.89893347 12.21402724 -30.91973837 10.1034714 -27.8203125 7.28515625 C-20.0240811 1.78094996 -9.53278704 -2.47299838 0 0 Z " fill="#020202" transform="translate(60,337)"/>
<path d="M0 0 C2.51700557 2.27650694 3.96232817 4.53350295 5.49609375 7.55078125 C6.20137207 8.92363281 6.20137207 8.92363281 6.92089844 10.32421875 C7.42137695 11.31035156 7.92185547 12.29648437 8.4375 13.3125 C13.09523718 22.37064081 17.87328801 31.34892305 22.7746582 40.27734375 C25.27435833 44.83317582 27.75222689 49.3970578 30.16967773 53.99707031 C41.1871841 74.9339927 53.91323547 94.7490296 69 113 C69.48855469 113.59151855 69.97710937 114.18303711 70.48046875 114.79248047 C83.33179446 130.25784512 97.41679914 142.75521618 113.79296875 154.34375 C115.71432766 155.78561934 117.36201412 157.24996948 119 159 C117.42484627 160.57515373 115.87471081 160.20813951 113.6875 160.25 C95.71168896 159.96912795 82.18918407 149.87878495 68.62060547 139.25195312 C67.2856967 138.22070694 65.91470801 137.23633971 64.53515625 136.265625 C63.77525391 135.63914062 63.77525391 135.63914062 63 135 C63 134.34 63 133.68 63 133 C62.43667969 132.76152344 61.87335938 132.52304687 61.29296875 132.27734375 C32.49587688 116.2353522 12.66816203 68.78435272 4 39 C1.18503967 28.84156011 -0.17383958 19.01730846 -0.0625 8.5 C-0.05798828 7.67757813 -0.05347656 6.85515625 -0.04882812 6.0078125 C-0.03718489 4.00517604 -0.01925556 2.00257773 0 0 Z " fill="#030303" transform="translate(189,412)"/>
<path d="M0 0 C0.19809361 5.46243138 0.34307407 10.92276519 0.43945312 16.38793945 C0.47963212 18.2457318 0.53418925 20.10327196 0.60351562 21.96020508 C0.70083198 24.6342581 0.7459756 27.30496552 0.78125 29.98046875 C0.82254028 30.80773972 0.86383057 31.63501068 0.90637207 32.48735046 C0.90823355 34.89159191 0.79548663 36.72893633 0 39 C-2.35105015 41.33149415 -5.0217092 42.60681691 -8 44 C-9.4234564 44.74889967 -10.8466329 45.49833159 -12.26953125 46.24829102 C-13.78180641 47.00427306 -15.29621621 47.75599684 -16.8125 48.50390625 C-17.62565674 48.90906967 -18.43881348 49.31423309 -19.27661133 49.73167419 C-21.84919968 51.01242825 -24.42451919 52.28757414 -27 53.5625 C-28.72674886 54.42084916 -30.45331295 55.27957012 -32.1796875 56.13867188 C-36.00114862 58.03965989 -39.82433778 59.93711817 -43.64916992 61.83131409 C-47.10249478 63.54809156 -50.55062006 65.27531003 -54 67 C-54 53.47 -54 39.94 -54 26 C-38.24358387 16.99633364 -38.24358387 16.99633364 -32.60546875 14.296875 C-32.00293777 14.00693665 -31.4004068 13.71699829 -30.77961731 13.41827393 C-28.91784905 12.52401081 -27.05274774 11.6369778 -25.1875 10.75 C-23.93012501 10.14627785 -22.67296308 9.54211176 -21.41601562 8.9375 C-2.79316778 0 -2.79316778 0 0 0 Z " fill="#010101" transform="translate(309,88)"/>
<path d="M0 0 C0.19809361 5.46243138 0.34307407 10.92276519 0.43945312 16.38793945 C0.47963212 18.2457318 0.53418925 20.10327196 0.60351562 21.96020508 C0.70083198 24.6342581 0.7459756 27.30496552 0.78125 29.98046875 C0.82254028 30.80773972 0.86383057 31.63501068 0.90637207 32.48735046 C0.90823835 34.89779131 0.80663004 36.72576799 0 39 C-2.38094501 41.2985357 -5.01360068 42.62156482 -8 44 C-9.02859131 44.53399414 -10.05718262 45.06798828 -11.11694336 45.61816406 C-12.09800049 46.07932617 -13.07905762 46.54048828 -14.08984375 47.015625 C-15.19666504 47.54067627 -16.30348633 48.06572754 -17.44384766 48.60668945 C-18.59675293 49.14898193 -19.7496582 49.69127441 -20.9375 50.25 C-29.81215107 54.46603054 -38.60320694 58.77091394 -47.23803711 63.45996094 C-51.91829427 66 -51.91829427 66 -53 66 C-53.94167103 57.4943017 -54.21413404 49.05403097 -54.25 40.5 C-54.270625 39.23929688 -54.29125 37.97859375 -54.3125 36.6796875 C-54.31765625 35.47570312 -54.3228125 34.27171875 -54.328125 33.03125 C-54.3374707 31.94392578 -54.34681641 30.85660156 -54.35644531 29.73632812 C-54 27 -54 27 -52.9296875 25.35839844 C-50.04644623 23.32874833 -46.95325405 21.78395841 -43.796875 20.234375 C-43.08202942 19.87788879 -42.36718384 19.52140259 -41.63067627 19.15411377 C-40.11227551 18.3982735 -38.59243881 17.64531202 -37.07128906 16.89501953 C-34.79710435 15.77323511 -32.52709321 14.64338495 -30.2578125 13.51171875 C-23.04354578 9.92330583 -15.80240841 6.39207856 -8.515625 2.953125 C-7.885495 2.652995 -7.25536499 2.35286499 -6.60614014 2.04364014 C-2.2357773 0 -2.2357773 0 0 0 Z " fill="#020202" transform="translate(229,127)"/>
<path d="M0 0 C0 12.54 0 25.08 0 38 C-8.86413054 42.72753629 -17.61598744 47.3651336 -26.6875 51.625 C-33.84249515 55.0098879 -40.96011664 58.43188527 -47.98828125 62.07421875 C-50 63 -50 63 -52 63 C-53.25282725 59.24151826 -53.12381835 55.74509081 -53.09765625 51.83203125 C-53.0962413 51.03721848 -53.09482635 50.2424057 -53.09336853 49.42350769 C-53.08777378 46.88646675 -53.07522228 44.34951425 -53.0625 41.8125 C-53.05748432 40.09179815 -53.05292153 38.37109492 -53.04882812 36.65039062 C-53.03780607 32.4335597 -53.02054506 28.21679484 -53 24 C-39.20742799 16.44523625 -25.05182917 9.80881198 -10.75463867 3.27758789 C-9.10521425 2.51259294 -7.47190981 1.70849519 -5.88012695 0.82983398 C-4 0 -4 0 0 0 Z " fill="#030303" transform="translate(441,132)"/>
<path d="M0 0 C5.31517086 2.26633785 7.73366215 4.68482914 10 10 C11.88837512 18.26227856 11.81627384 26.74035009 8.47265625 34.58203125 C4.72772799 39.31567474 0.87571296 41.05645848 -4.98828125 41.93359375 C-12.96939011 42.62623436 -20.80725779 42.45899348 -27.3125 37.3125 C-32.45899348 30.80725779 -32.62623436 22.96939011 -31.93359375 14.98828125 C-31.05645848 9.12428704 -29.31567474 5.27227201 -24.58203125 1.52734375 C-16.74035009 -1.81627384 -8.26227856 -1.88837512 0 0 Z " fill="#FEFEFE" transform="translate(355,155)"/>
<path d="M0 0 C5.65296494 2.57929959 8.87015336 6.21044148 11.9921875 11.5625 C13.34933909 16.99110635 13.35785928 22.23809222 11.6171875 27.5625 C8.32540272 32.23471066 4.03087196 36.15634509 -1.3203125 38.3125 C-7.47746841 39.23919206 -12.92213962 39.10690733 -18.3203125 35.8125 C-23.34743647 31.89845974 -25.81519698 27.95464874 -26.69140625 21.63671875 C-26.97715174 15.37629487 -26.05207819 10.42103361 -22.3203125 5.3125 C-15.85900434 -0.82574275 -8.66286885 -2.56677596 0 0 Z " fill="#010101" transform="translate(390.3203125,266.6875)"/>
<path d="M0 0 C4.49593754 2.99452666 7.42589085 7.33626631 9.1171875 12.41015625 C9.84930493 19.16724011 9.33082037 24.89813651 5.1171875 30.41015625 C-0.78115795 35.79909914 -6.06023793 36.76733167 -13.9375 36.69140625 C-17.90277714 36.3127591 -19.94419836 35.06207633 -22.8828125 32.41015625 C-23.7903125 31.60578125 -24.6978125 30.80140625 -25.6328125 29.97265625 C-29.87875875 25.13699525 -30.38360633 20.45222935 -30.265625 14.19921875 C-29.48757229 8.53054898 -26.42940363 4.87941782 -22.3828125 1.03515625 C-14.91593591 -3.81831353 -7.90282912 -3.81468741 0 0 Z " fill="#FDFDFD" transform="translate(278.8828125,400.58984375)"/>
<path d="M0 0 C4.65308559 2.29671532 7.34940164 5.45208424 9.078125 10.33984375 C9.75771149 15.77653565 8.69773363 19.55228315 6.078125 24.33984375 C2.44402852 27.79223541 -0.19867318 29.20979078 -5.234375 29.58984375 C-9.87554988 29.27518783 -13.00969477 28.22625336 -16.37109375 24.91015625 C-19.4494169 21.36435136 -20.78444664 18.76909867 -21.234375 14.08984375 C-20.80693186 8.96052602 -19.32605762 5.40926677 -15.37890625 2.01171875 C-10.47568299 -1.17481536 -5.55958709 -1.90969556 0 0 Z " fill="#020202" transform="translate(412.921875,332.66015625)"/>
<path d="M0 0 C4.4125235 2.1661479 7.09058512 4.43862 9 9 C9.57057837 14.23030176 8.84948106 17.57839146 6 22 C3.72401089 24.62083595 2.11277192 25.81763938 -1.3359375 26.3828125 C-5.6281724 26.57615641 -8.49136098 26.23119956 -12.4375 24.4375 C-16.29360404 20.7694986 -17.69144644 17.15987491 -18.4375 11.9375 C-17.76032996 7.3907869 -15.55065332 4.39228872 -12.1640625 1.3515625 C-8.34316989 -1.03477115 -4.34826516 -0.61823675 0 0 Z " fill="#020202" transform="translate(227,80)"/>
<path d="M0 0 C3.44087516 3.01076576 4.74772504 5.11703763 6 9.5 C6 13.58980621 5.23980916 15.60166887 3 19 C-0.0147581 22.0147581 -2.77578566 22.74137463 -7 23 C-11.00270701 22.121357 -13.53569476 20.09532014 -16.04296875 16.83984375 C-17.88802763 13.2928122 -17.87241978 9.84689037 -17 6 C-13.11104239 -1.0977173 -7.33662865 -2.07227581 0 0 Z " fill="#030303" transform="translate(528,498)"/>
<path d="M0 0 C3.47060168 2.06759249 5.77725393 4.10944433 7 8 C7.33837797 11.72215762 7.29518405 14.27843899 5.875 17.75 C2.82986995 21.40415606 -0.33740663 22.75753847 -5 23.4375 C-9.4721976 22.78530452 -12.57979629 20.80753199 -15.375 17.25 C-16.34165091 13.77005671 -16.68551123 10.536152 -16 7 C-12.08620415 0.23451647 -7.36817692 -0.9305829 0 0 Z " fill="#040404" transform="translate(73,90)"/>
<path d="M0 0 C3.27498169 2.67169559 4.84248982 4.5824084 5.3125 8.8125 C4.92835642 12.7307645 3.70743683 14.21293267 1 17 C-2.13871188 18.56935594 -4.53855822 18.35201103 -8 18 C-11.58311824 15.42950213 -12.78702567 13.74541015 -14 9.5 C-14 5.5573648 -13.49535546 4.0116359 -11 1 C-7.44544736 -1.79286279 -4.2131487 -1.05328717 0 0 Z " fill="#050505" transform="translate(448,372)"/>
<path d="" fill="#000000" transform="translate(0,0)"/>
</svg>
